<mxfile host="app.diagrams.net" agent="Mozilla/5.0 (Windows NT 10.0; Win64; x64) AppleWebKit/537.36 (KHTML, like Gecko) Chrome/109.0.0.0 Safari/537.36 Edg/109.0.1518.78" version="24.9.0">
  <diagram name="Page-1" id="58cdce13-f638-feb5-8d6f-7d28b1aa9fa0">
    <mxGraphModel dx="1387" dy="796" grid="1" gridSize="10" guides="1" tooltips="1" connect="1" arrows="1" fold="1" page="1" pageScale="1" pageWidth="1100" pageHeight="850" background="none" math="0" shadow="0">
      <root>
        <mxCell id="0" />
        <mxCell id="1" parent="0" />
        <mxCell id="fgAjEzkgSrdyZiMy2f9m-2" value="" style="rounded=0;whiteSpace=wrap;html=1;fillColor=#dae8fc;strokeColor=#6c8ebf;labelBackgroundColor=none;" vertex="1" parent="1">
          <mxGeometry x="70" y="130" width="510" height="480" as="geometry" />
        </mxCell>
        <mxCell id="fgAjEzkgSrdyZiMy2f9m-3" value="云服务器&lt;div&gt;南天门埋点数据&lt;/div&gt;" style="rounded=0;whiteSpace=wrap;html=1;fillColor=#dae8fc;strokeColor=#6c8ebf;labelBackgroundColor=none;" vertex="1" parent="1">
          <mxGeometry x="730" y="130" width="310" height="180" as="geometry" />
        </mxCell>
        <mxCell id="fgAjEzkgSrdyZiMy2f9m-7" value="APK" style="rounded=1;whiteSpace=wrap;html=1;strokeColor=#82b366;fillColor=#d5e8d4;" vertex="1" parent="1">
          <mxGeometry x="90" y="170" width="260" height="120" as="geometry" />
        </mxCell>
        <mxCell id="fgAjEzkgSrdyZiMy2f9m-8" value="Framework" style="rounded=1;whiteSpace=wrap;html=1;strokeColor=#82b366;fillColor=#d5e8d4;" vertex="1" parent="1">
          <mxGeometry x="90" y="320" width="260" height="120" as="geometry" />
        </mxCell>
        <mxCell id="fgAjEzkgSrdyZiMy2f9m-9" value="DCS" style="ellipse;shape=cloud;whiteSpace=wrap;html=1;strokeColor=#E07A5F;fontColor=#393C56;fillColor=#F2CC8F;" vertex="1" parent="1">
          <mxGeometry x="420" y="160" width="160" height="120" as="geometry" />
        </mxCell>
        <mxCell id="fgAjEzkgSrdyZiMy2f9m-10" value="" style="shape=flexArrow;endArrow=classic;startArrow=classic;html=1;rounded=0;strokeColor=#82b366;fontColor=#393C56;fillColor=#d5e8d4;entryX=0;entryY=0.5;entryDx=0;entryDy=0;" edge="1" parent="1" target="fgAjEzkgSrdyZiMy2f9m-3">
          <mxGeometry width="100" height="100" relative="1" as="geometry">
            <mxPoint x="580" y="220" as="sourcePoint" />
            <mxPoint x="700" y="190" as="targetPoint" />
          </mxGeometry>
        </mxCell>
      </root>
    </mxGraphModel>
  </diagram>
</mxfile>
